<svg xmlns="http://www.w3.org/2000/svg" viewBox="0 0 100 100">
  <!-- Vaultsmith's keyhole mark, from src/theme/logoShapes.ts: the dark theme's default accent. -->
  <defs>
    <linearGradient id="tile" x1="0" y1="0" x2="100" y2="100" gradientUnits="userSpaceOnUse">
      <stop offset="0" stop-color="#7E9BFF" />
      <stop offset="0.5" stop-color="#8FA8FF" />
      <stop offset="1" stop-color="#6876A6" />
    </linearGradient>
  </defs>
  <path fill="url(#tile)" d="M29 0 L71 0 A29 29 0 0 1 100 29 L100 71 A29 29 0 0 1 71 100 L29 100 A29 29 0 0 1 0 71 L0 29 A29 29 0 0 1 29 0 Z" />
  <path fill="#0A0C10" d="M37 42 A13 13 0 1 0 63 42 A13 13 0 1 0 37 42 Z" />
  <path fill="#0A0C10" d="M48 45 L52 45 A4 4 0 0 1 56 49 L56 69 A4 4 0 0 1 52 73 L48 73 A4 4 0 0 1 44 69 L44 49 A4 4 0 0 1 48 45 Z" />
</svg>
